<svg width="727" height="254" viewBox="0 0 727 254" fill="none" xmlns="http://www.w3.org/2000/svg">
<path d="M714.26 238.95C645.44 284.38 561.73 216.11 510.9 171.05C449.18 116.34 390.17 59.8 301.47 62.97C231.45 65.47 151.98 83.81 82.46 61.19C51.84 51.23 -22.94 19.59 6.88999 -23.67C9.42999 -27.36 13.15 -30.09 17.04 -32.32C32.74 -41.32 51.47 -42.92 69.52 -44.17C228.29 -55.15 387.61 -54.38 546.75 -53.6C626.15 -53.21 705.55 -52.83 784.95 -52.44C796.6 -52.37 787.59 50.29 786.93 59.47C782.81 116.79 771.2 191.96 724.01 231.65C720.8 234.35 717.55 236.78 714.26 238.95Z" fill="url(#paint0_linear_66_133)"/>
<defs>
<linearGradient id="paint0_linear_66_133" x1="355.47" y1="196.793" x2="427.607" y2="-96.9086" gradientUnits="userSpaceOnUse">
<stop stop-color="#EEC32D"/>
<stop offset="0.201" stop-color="#EFAB2D"/>
<stop offset="0.6228" stop-color="#F36E2B"/>
<stop offset="1" stop-color="#F6322A"/>
</linearGradient>
</defs>
</svg>
