<svg width="317" height="327" viewBox="0 0 317 327" fill="none" xmlns="http://www.w3.org/2000/svg">
<path d="M319.99 326.21C316.95 326.36 313.96 326.45 311.05 326.49C277.3 326.98 241.2 320.52 213.3 300.43C170.97 269.95 168.62 210.68 128.14 179.34C96.2701 154.66 51.63 153.75 26.27 119.13C2.24003 86.32 -23.55 -3.05001 44.12 0.0799883C100.55 2.68999 151.65 33.63 206.99 44.98C235.77 50.88 265.64 51.39 294.6 46.48C304.22 44.85 314.37 42.67 323.51 46.1C328.83 48.1 333.3 51.85 337.23 55.96C360.43 80.23 365.98 115.85 379.81 146.45C394.82 179.67 434.72 227.01 424.7 266.52C413.23 311.72 361.54 324.21 319.99 326.21Z" fill="url(#paint0_linear_66_132)"/>
<defs>
<linearGradient id="paint0_linear_66_132" x1="260.752" y1="67.3215" x2="162.395" y2="235.107" gradientUnits="userSpaceOnUse">
<stop stop-color="#2435B7"/>
<stop offset="0.2809" stop-color="#1C4DBC"/>
<stop offset="0.8714" stop-color="#078AC7"/>
<stop offset="0.9951" stop-color="#0298CA"/>
</linearGradient>
</defs>
</svg>
