<svg width="97" height="96" viewBox="0 0 97 96" fill="none" xmlns="http://www.w3.org/2000/svg">
<g clip-path="url(#clip0_23_156)">
<path d="M59.2159 46.3486L49.7485 55.4618L9.76902 93.9401C8.71944 94.9526 7.37301 95.4589 6.02658 95.4589C4.55293 95.4589 3.07928 94.8557 2.00849 93.66C-0.101266 91.3116 0.174381 87.6383 2.6022 85.6347L49.7485 46.8872L54.9433 42.6214L59.2159 46.3486Z" fill="url(#paint0_linear_23_156)"/>
<path d="M49.335 55.925L40.016 64.8875L39.1573 55.6773L44.2567 51.4869L49.335 55.925Z" fill="#3A81D6" fill-opacity="0.8"/>
<path d="M96.513 32.2478C96.513 49.6233 82.6459 63.7133 65.5557 63.7133C54.7843 63.7133 45.2957 58.1225 39.7509 49.6341C36.4962 44.6573 34.5984 38.6788 34.5984 32.2478C34.5984 14.8723 48.4656 0.79303 65.5557 0.79303C73.2739 0.79303 80.3241 3.65843 85.7416 8.39818C92.3359 14.1721 96.513 22.7144 96.513 32.2478Z" fill="url(#paint1_linear_23_156)"/>
<path d="M65.5558 56.7545C78.8764 56.7545 89.6749 45.7825 89.6749 32.2478C89.6749 18.7131 78.8764 7.74109 65.5558 7.74109C52.2351 7.74109 41.4366 18.7131 41.4366 32.2478C41.4366 45.7825 52.2351 56.7545 65.5558 56.7545Z" fill="white"/>
<path opacity="0.06" d="M96.513 32.2478C96.513 49.6233 82.6459 63.7133 65.5557 63.7133C54.7843 63.7133 45.2957 58.1225 39.7509 49.6341C74.6627 46.7471 83.8651 16.6928 85.7522 8.39819C92.3359 14.1721 96.513 22.7144 96.513 32.2478Z" fill="#1A6FB5" fill-opacity="0.5"/>
<path d="M65.5557 32.3016C68.3546 32.3016 70.6234 29.9964 70.6234 27.1525C70.6234 24.3087 68.3546 22.0034 65.5557 22.0034C62.7569 22.0034 60.4881 24.3087 60.4881 27.1525C60.4881 29.9964 62.7463 32.3016 65.5557 32.3016ZM65.5557 34.8762C62.1738 34.8762 55.4204 36.5997 55.4204 40.0253V41.3179C55.4204 42.0289 55.9929 42.6106 56.6926 42.6106H74.4401C75.1398 42.6106 75.7123 42.0289 75.7123 41.3179V40.0253C75.6911 36.6105 68.9377 34.8762 65.5557 34.8762Z" fill="url(#paint2_linear_23_156)"/>
</g>
<defs>
<linearGradient id="paint0_linear_23_156" x1="6.50609" y1="89.4812" x2="57.2059" y2="44.1194" gradientUnits="userSpaceOnUse">
<stop stop-color="#67C3F3"/>
<stop offset="1" stop-color="#5A98F2"/>
</linearGradient>
<linearGradient id="paint1_linear_23_156" x1="52.7516" y1="3.01569" x2="76.8274" y2="56.2836" gradientUnits="userSpaceOnUse">
<stop stop-color="#67C3F3"/>
<stop offset="1" stop-color="#5A98F2"/>
</linearGradient>
<linearGradient id="paint2_linear_23_156" x1="58.2283" y1="30.6564" x2="76.6952" y2="39.5208" gradientUnits="userSpaceOnUse">
<stop stop-color="#B0F4FF"/>
<stop offset="0.071077" stop-color="#A6F1FF"/>
<stop offset="0.2937" stop-color="#8BE8FD"/>
<stop offset="0.5209" stop-color="#78E1FD"/>
<stop offset="0.7536" stop-color="#6DDDFC"/>
<stop offset="1" stop-color="#69DCFC"/>
</linearGradient>
<clipPath id="clip0_23_156">
<rect width="95.9252" height="94.6551" fill="white" transform="translate(0.58783 0.79303)"/>
</clipPath>
</defs>
</svg>
