<svg width="500" height="500" viewBox="0 0 500 500" fill="none" xmlns="http://www.w3.org/2000/svg">
<path d="M250.846 217.847C302.318 217.847 344.044 175.026 344.044 122.205C344.044 69.3829 302.318 26.5625 250.846 26.5625C199.374 26.5625 157.648 69.3829 157.648 122.205C157.648 175.026 199.374 217.847 250.846 217.847Z" fill="#5885FA"/>
<path fill-rule="evenodd" clip-rule="evenodd" d="M283.449 32.583C296.478 37.5773 308.122 45.4772 317.643 55.5144C317.421 58.0616 316.542 60.5664 315.231 62.9102C314.959 63.5539 315.205 69.6351 311.161 75.179C315.687 81.2086 313.616 89.9767 306.962 93.2557C305.232 105.066 299.862 115.358 286.061 117.997C285.942 120.091 285.854 122.332 285.824 124.615C287.697 124.691 287.522 125.948 287.522 125.948C287.197 128.286 287.155 131.288 287.229 134.133C287.49 134.285 290.12 135.399 294.368 137.965C307.894 141.69 321.663 161.133 332.089 169.09C316.107 198.191 285.715 217.85 250.846 217.85C241.781 217.85 233.018 216.517 224.735 214.039C223.113 212.925 221.519 211.756 219.954 210.53L219.98 210.393C215.075 208.757 211.247 204.737 212.33 197.493C214.217 184.875 229.403 154.59 240.237 149.842C246.539 142.959 253.855 136.428 256.621 134.012C254.914 127.421 252.882 120.061 256.731 119.691C257.68 119.6 258.695 119.709 259.769 119.967C259.742 116.998 259.585 113.798 259.225 110.519C255.861 106.684 253.583 101.811 252.171 96.5589C241.054 99.1487 236.086 81.4393 240.917 77.3953C242.391 76.1627 243.672 75.5312 244.799 75.2943C243.823 72.1793 242.468 68.3994 240.767 63.9729C240.767 63.9729 237.971 59.5372 240.453 57.9007C242.935 56.2643 245.719 60.0928 245.719 60.0928C246.509 54.1451 249.204 40.92 254.308 38.8828C259.662 36.7454 255.195 45.2707 253.651 47.9698L253.461 48.2946L258.938 43.0483C264.378 37.8627 271.535 32.2764 283.449 32.583ZM343.485 111.718C343.852 115.161 344.044 118.658 344.044 122.205V122.311C343.062 120.255 342.272 118.652 341.938 118.018C340.041 114.435 341.299 111.791 343.485 111.718ZM310.693 75.7923L307.448 78.9255C307.696 83.0606 307.687 87.7179 307.087 92.3479C312.942 89.1175 314.672 81.2845 310.693 75.7923ZM285.821 124.673C285.806 125.711 285.803 126.759 285.815 127.803L285.821 124.673Z" fill="#3A66FA"/>
<path fill-rule="evenodd" clip-rule="evenodd" d="M339.154 100.973C339.154 100.973 340.689 107.862 338.949 116.333C337.21 124.8 324.716 116.4 324.716 116.4C324.716 116.4 326.133 102.443 325.122 99.8986C324.113 97.3514 336.728 94.6432 339.154 100.973Z" fill="#CE5454"/>
<path fill-rule="evenodd" clip-rule="evenodd" d="M327.376 104.829C327.376 104.829 326.417 91.1153 323.639 79.5995C323.639 79.5995 341.183 79.2321 347.499 82.9665C347.499 82.9665 345.097 106.013 337.742 107.334C330.391 108.655 327.376 104.829 327.376 104.829Z" fill="#E69888"/>
<path fill-rule="evenodd" clip-rule="evenodd" d="M325.246 89.4272C321.808 74.6811 312.391 78.0936 316.285 85.447C317.285 87.3384 322.32 97.8493 324.432 103.178C326.879 109.35 345.473 101.848 325.246 89.4272Z" fill="#E69888"/>
<path fill-rule="evenodd" clip-rule="evenodd" d="M309.223 139.768C309.223 139.768 322.104 125.745 321.997 100.709C333.328 110.051 341.55 113.081 342.346 105.108C342.346 105.108 344.168 148.363 327.577 156.199C310.986 164.038 307.17 146.435 309.223 139.768Z" fill="#191A31"/>
<path fill-rule="evenodd" clip-rule="evenodd" d="M268.718 105.394C284.599 109.766 300.815 135.812 311.563 139.489C322.311 143.166 316.418 164.3 299.856 158.734C283.298 153.169 268.869 128.028 268.869 128.028L268.718 105.394Z" fill="#191A31"/>
<path fill-rule="evenodd" clip-rule="evenodd" d="M328.926 82.6052L323.642 79.5995C323.642 79.5995 322.249 69.1858 321.317 63.9364C320.388 58.6871 326.015 56.2066 327.876 63.7421C329.737 71.2776 330.272 80.5467 330.272 80.5467L328.926 82.6052Z" fill="#E69888"/>
<path fill-rule="evenodd" clip-rule="evenodd" d="M332.888 82.8177L330.426 81.3149C330.426 81.3149 329.157 67.1365 332.373 66.678C335.586 66.2165 337.636 67.6222 337.574 72.2704C337.881 71.1592 342.583 70.1847 344.006 74.6234C344.006 74.6234 348.366 74.7964 347.505 82.9665L332.888 82.8177Z" fill="#E69888"/>
<path fill-rule="evenodd" clip-rule="evenodd" d="M251.213 95.4963L261.692 101.632C261.692 101.632 283.327 111.184 290.774 127.697C297.194 141.93 302.868 166.103 305.951 179.067C290.516 190.701 271.464 197.578 250.843 197.578C229.578 197.578 209.981 190.264 194.298 177.962C197.239 162.378 203.889 130.28 210.058 122.532C218.285 112.198 232.101 100.46 232.101 100.46L251.213 95.4963Z" fill="#2A3460"/>
<path fill-rule="evenodd" clip-rule="evenodd" d="M277.816 193.503C269.277 196.151 260.224 197.572 250.846 197.572C229.581 197.572 209.984 190.258 194.301 177.956C197.141 162.906 213.415 139.68 223.078 128.413C226.554 150.665 249.864 161.163 269.248 160.471L277.816 193.503Z" fill="#191A31"/>
<path fill-rule="evenodd" clip-rule="evenodd" d="M261.494 73.1934C261.494 73.1934 259.162 90.9695 260.662 103.791C257.583 108.56 246.281 106.211 239.802 103.791C238.063 103.162 236.208 102.504 234.225 101.82C233.918 101.714 233.619 101.608 233.332 101.499C234.075 95.4659 235.506 78.6127 230.681 64.3038C224.681 46.5246 262.325 50.2863 261.494 73.1934Z" fill="#E69888"/>
<path fill-rule="evenodd" clip-rule="evenodd" d="M261.494 73.1934C261.494 73.1934 259.902 82.0314 260.18 91.5373C249.642 94.7525 235.992 79.2291 235.992 79.2291L239.172 62.9345L243.766 53.4256C252.432 54.8799 261.917 61.5683 261.494 73.1934Z" fill="#CE5454"/>
<path fill-rule="evenodd" clip-rule="evenodd" d="M262.162 110.668C262.162 110.668 261 99.6375 261.872 93.3771C261.872 93.3771 262.044 92.1172 260.171 92.0443L260.165 95.2868C258.574 95.973 257.991 97.0872 250.636 94.5703C243.281 92.0534 236.208 86.6188 231.075 87.1168C225.942 87.6147 231.27 100.533 232.335 107.489C232.335 107.489 259.062 121.798 262.162 110.668Z" fill="#2A3460"/>
<path fill-rule="evenodd" clip-rule="evenodd" d="M340.639 50.3409H352.186V55.9789C352.186 59.0818 349.712 61.6199 346.689 61.6199H346.133C343.109 61.6199 340.636 59.0818 340.636 55.9789V50.3409H340.639Z" fill="#2A3460"/>
<path fill-rule="evenodd" clip-rule="evenodd" d="M346.414 15.4171C355.194 15.4171 362.315 22.7219 362.315 31.736C362.315 42.1254 354.505 42.3288 353.922 53.0218C353.866 54.0571 353.035 54.8647 352.023 54.8647H346.405H340.787C339.775 54.8647 338.944 54.0571 338.887 53.0218C338.305 42.3561 330.518 42.0829 330.518 31.736C330.512 22.7249 337.63 15.4171 346.414 15.4171Z" fill="#F0C63B"/>
<path fill-rule="evenodd" clip-rule="evenodd" d="M346.337 56.741V40.662C343.298 41.0263 341.346 40.1458 340.302 38.8373C339.864 38.2908 339.583 37.6654 339.449 37.0278C339.316 36.3933 339.331 35.7375 339.476 35.1212C339.807 33.7185 340.819 32.5223 342.349 32.1944C346.955 31.2046 347.233 38.5519 347.233 38.5701L347.236 39.5811C349.757 39.0286 351.13 37.5682 351.588 35.9561C351.777 35.2912 351.813 34.599 351.712 33.9341C351.612 33.2722 351.372 32.6377 351.011 32.0821C350.144 30.7462 348.565 29.89 346.497 30.2726L346.34 29.3678C348.807 28.9063 350.709 29.9507 351.76 31.572C352.189 32.2339 352.476 32.9959 352.597 33.7944C352.718 34.5868 352.677 35.4157 352.449 36.2111C351.896 38.1603 350.251 39.9181 347.239 40.5162V56.7379H346.337V56.741ZM346.337 39.736V38.5944C346.319 38.1967 345.979 32.3583 342.532 33.0961C341.37 33.3451 340.6 34.262 340.349 35.3367C340.236 35.8194 340.225 36.3356 340.331 36.8365C340.435 37.3375 340.654 37.8263 340.997 38.2513C341.878 39.3595 343.594 40.0912 346.337 39.736Z" fill="#2A3460"/>
<path fill-rule="evenodd" clip-rule="evenodd" d="M373.07 26.4836L369.824 28.1504C369.336 28.4024 368.738 28.1959 368.493 27.695L368.401 27.5067C368.155 27.0058 368.357 26.3925 368.845 26.1405L372.09 24.4737C372.578 24.2217 373.176 24.4282 373.422 24.9291L373.513 25.1174C373.759 25.6183 373.558 26.2316 373.07 26.4836ZM322.557 22.646L323.465 22.9557C323.982 23.1318 324.264 23.7086 324.092 24.2399L324.027 24.4373C323.941 24.7044 323.775 24.9018 323.53 25.0263C323.284 25.1507 323.033 25.172 322.772 25.0809L321.864 24.7712C321.346 24.5951 321.065 24.0183 321.237 23.487L321.302 23.2896C321.388 23.0225 321.554 22.8251 321.799 22.7006C322.042 22.5762 322.296 22.5579 322.557 22.646ZM323.977 16.2217L327.758 19.6464C327.962 19.8316 328.074 20.0653 328.092 20.3477C328.11 20.627 328.027 20.8729 327.843 21.0855L327.707 21.2433C327.346 21.6623 326.719 21.7018 326.308 21.3314L322.527 17.9067C322.323 17.7215 322.21 17.4877 322.193 17.2054C322.175 16.9261 322.258 16.6801 322.441 16.4676L322.577 16.3097C322.941 15.8908 323.568 15.8513 323.977 16.2217ZM346.615 4.52981V8.37954C346.615 8.94121 346.168 9.39662 345.624 9.39662H345.411C344.863 9.39662 344.42 8.93817 344.42 8.37954V4.52981C344.42 3.96814 344.866 3.51273 345.411 3.51273H345.624C346.171 3.51273 346.615 3.96814 346.615 4.52981Z" fill="#F0C63B"/>
<path fill-rule="evenodd" clip-rule="evenodd" d="M448.984 316.546C449.02 316.428 459.312 281.977 474.971 248.987C453.413 213.22 486.835 216.602 476.486 245.836C478.119 242.484 479.805 239.157 481.539 235.896C482.814 201.84 515.251 217.06 482.279 236.069C462.972 272.271 449.721 316.628 449.679 316.762L448.984 316.546ZM471.918 257.467C511.142 255.533 490.169 227.179 471.918 257.467V257.467ZM465.134 270.446C465.134 270.446 473.35 246.191 463.244 245.126C453.141 244.06 455.806 260.148 465.134 270.446ZM462.768 281.376C503.444 280.635 481.018 251.085 462.768 281.376V281.376ZM455.173 295.53C462.596 245.032 426.562 271.269 455.173 295.53V295.53Z" fill="#CFE0FC"/>
<path fill-rule="evenodd" clip-rule="evenodd" d="M111.517 262.343C111.469 262.231 97.3782 229.226 78.1156 198.306C95.5144 160.228 62.696 167.539 76.2576 195.355C74.2607 192.219 72.2134 189.113 70.1218 186.08C65.0332 152.404 34.5195 171.358 69.4058 186.341C92.6476 220.017 110.792 262.513 110.848 262.644L111.517 262.343ZM82.1036 206.373C42.9245 209.091 60.5718 178.445 82.1036 206.373V206.373ZM90.2986 218.463C90.2986 218.463 79.4143 195.34 89.3311 193.087C99.2509 190.835 98.4077 207.129 90.2986 218.463ZM93.8783 229.041C53.3886 233.112 72.3465 201.109 93.8783 229.041V229.041ZM103.011 242.202C89.9672 192.917 128.708 214.719 103.011 242.202V242.202Z" fill="#CFE0FC"/>
<path fill-rule="evenodd" clip-rule="evenodd" d="M108.742 150.567H450.925C457.073 150.567 462.105 155.729 462.105 162.041V396.479C462.105 402.788 457.076 407.953 450.925 407.953H108.742C102.594 407.953 97.5616 402.791 97.5616 396.479V162.041C97.5616 155.732 102.591 150.567 108.742 150.567Z" fill="#CFE0FC"/>
<path fill-rule="evenodd" clip-rule="evenodd" d="M462.105 396.103V396.479C462.105 400.724 459.827 404.449 456.466 406.432C457.253 405.931 457.981 405.342 458.632 404.674C460.774 402.476 462.105 399.443 462.105 396.103ZM103.2 406.432C99.8396 404.449 97.5616 400.724 97.5616 396.479V396.103C97.5616 399.44 98.8929 402.476 101.035 404.674C101.686 405.342 102.414 405.934 103.2 406.432ZM460.732 396.103V173.772C460.732 171.796 459.161 170.18 457.232 170.18H102.434C100.508 170.18 98.9344 171.793 98.9344 173.772V396.106C98.9344 399.054 100.112 401.735 102.005 403.681C103.899 405.624 106.511 406.832 109.387 406.832H450.28C453.153 406.832 455.765 405.624 457.661 403.681C459.555 401.735 460.732 399.051 460.732 396.103Z" fill="white"/>
<path fill-rule="evenodd" clip-rule="evenodd" d="M118.522 178.721H343.08C348.494 178.721 352.922 183.266 352.922 188.822V256.535C352.922 262.091 348.494 266.636 343.08 266.636H118.522C113.108 266.636 108.68 262.091 108.68 256.535V188.822C108.68 183.266 113.108 178.721 118.522 178.721Z" fill="#CFE0FC"/>
<path fill-rule="evenodd" clip-rule="evenodd" d="M371.806 178.721H440.683C446.348 178.721 450.984 183.478 450.984 189.292V353.328C450.984 359.142 446.348 363.899 440.683 363.899H371.806C366.141 363.899 361.505 359.142 361.505 353.328V189.295C361.505 183.478 366.141 178.721 371.806 178.721Z" fill="#CFE0FC"/>
<path fill-rule="evenodd" clip-rule="evenodd" d="M120.587 274.928V277.05C119.549 277.05 117.821 276.959 116.691 277.247L116.247 275.177C117.724 274.852 119.058 274.928 120.587 274.928ZM118.522 277.047V274.925V277.047ZM112.014 277.159C111.179 277.803 110.443 278.559 109.816 279.415L111.472 280.684C111.993 279.98 112.576 279.378 113.265 278.847L112.014 277.159ZM107.884 283.763C107.573 285.275 107.644 286.641 107.644 288.21H109.712C109.712 286.865 109.632 285.523 109.904 284.203L107.884 283.763ZM107.647 295.011H109.715V299.544H107.647V295.011ZM107.647 306.345H109.715V310.878H107.647V306.345ZM107.647 317.678H109.715V322.211H107.647V317.678ZM107.647 329.012H109.715V333.545H107.647V329.012ZM107.647 340.346H109.715V344.878H107.647V340.346ZM107.647 351.682H109.715C109.715 352.748 109.623 354.521 109.907 355.681L107.89 356.136C107.573 354.618 107.647 353.252 107.647 351.682ZM109.822 360.481C110.449 361.337 111.185 362.093 112.02 362.734L113.256 361.033C112.57 360.499 111.984 359.901 111.466 359.194L109.822 360.481ZM116.256 364.716C117.73 365.035 119.061 364.962 120.59 364.962V362.84C119.28 362.84 117.972 362.922 116.685 362.639L116.256 364.716ZM126.732 364.962V362.84H130.827V364.962H126.732ZM136.974 364.962V362.84H141.069V364.962H136.974ZM147.214 364.962V362.84H151.308V364.962H147.214ZM157.453 364.962V362.84H161.548V364.962H157.453ZM167.692 364.962V362.84H171.787V364.962H167.692ZM177.932 364.962V362.84H182.026V364.962H177.932ZM188.171 364.962V362.84H192.265V364.962H188.171ZM198.413 364.962V362.84H202.508V364.962H198.413ZM208.652 364.962V362.84H212.747V364.962H208.652ZM218.892 364.962V362.84C219.93 362.84 221.658 362.934 222.788 362.642L223.232 364.713C221.755 365.038 220.421 364.962 218.892 364.962ZM227.468 362.731C228.303 362.087 229.039 361.331 229.666 360.475L228.01 359.206C227.489 359.91 226.906 360.511 226.217 361.043L227.468 362.731ZM231.595 356.127C231.906 354.615 231.835 353.249 231.835 351.679H229.767C229.767 353.024 229.847 354.366 229.572 355.687L231.595 356.127ZM231.835 344.878H229.767V340.346H231.835V344.878ZM231.835 333.545H229.767V329.012H231.835V333.545ZM231.835 322.211H229.767V317.678H231.835V322.211ZM231.835 310.878H229.767V306.345H231.835V310.878ZM231.835 299.544H229.767V295.011H231.835V299.544ZM231.835 288.21H229.767C229.767 287.145 229.856 285.372 229.575 284.212L231.592 283.756C231.906 285.271 231.835 286.638 231.835 288.21ZM229.658 279.409C229.03 278.553 228.294 277.797 227.459 277.153L226.223 278.853C226.909 279.388 227.495 279.986 228.013 280.693L229.658 279.409ZM223.223 275.174C221.75 274.855 220.418 274.928 218.889 274.928V277.05C220.199 277.05 221.507 276.968 222.794 277.247L223.223 275.174ZM212.747 274.928V277.05H208.652V274.928H212.747ZM202.508 274.928V277.05H198.413V274.928H202.508ZM192.268 274.928V277.05H188.174V274.928H192.268ZM182.026 274.928V277.05H177.932V274.928H182.026ZM171.787 274.928V277.05H167.692V274.928H171.787ZM161.548 274.928V277.05H157.453V274.928H161.548ZM151.308 274.928V277.05H147.214V274.928H151.308ZM141.069 274.928V277.05H136.974V274.928H141.069ZM130.83 274.928V277.05H126.735V274.928H130.83Z" fill="#CFE0FC"/>
<path d="M113.7 165.957C116.917 165.957 119.525 163.281 119.525 159.979C119.525 156.678 116.917 154.001 113.7 154.001C110.483 154.001 107.875 156.678 107.875 159.979C107.875 163.281 110.483 165.957 113.7 165.957Z" fill="white"/>
<path d="M131.821 165.957C135.038 165.957 137.646 163.281 137.646 159.979C137.646 156.678 135.038 154.001 131.821 154.001C128.604 154.001 125.996 156.678 125.996 159.979C125.996 163.281 128.604 165.957 131.821 165.957Z" fill="white"/>
<path d="M149.941 165.957C153.159 165.957 155.767 163.281 155.767 159.979C155.767 156.678 153.159 154.001 149.941 154.001C146.724 154.001 144.116 156.678 144.116 159.979C144.116 163.281 146.724 165.957 149.941 165.957Z" fill="white"/>
<path fill-rule="evenodd" clip-rule="evenodd" d="M114.872 373.727H250.106C253.512 373.727 256.299 376.587 256.299 380.082C256.299 383.576 253.512 386.436 250.106 386.436H114.872C111.466 386.436 108.68 383.576 108.68 380.082C108.68 376.587 111.466 373.727 114.872 373.727Z" fill="#CFE0FC"/>
<path fill-rule="evenodd" clip-rule="evenodd" d="M272.739 373.727H296.04C299.445 373.727 302.232 376.587 302.232 380.082C302.232 383.576 299.445 386.436 296.04 386.436H272.739C269.334 386.436 266.547 383.576 266.547 380.082C266.547 376.587 269.334 373.727 272.739 373.727Z" fill="#CFE0FC"/>
<path fill-rule="evenodd" clip-rule="evenodd" d="M367.697 373.727H390.998C394.403 373.727 397.19 376.587 397.19 380.082C397.19 383.576 394.403 386.436 390.998 386.436H367.697C364.292 386.436 361.505 383.576 361.505 380.082C361.505 376.587 364.289 373.727 367.697 373.727Z" fill="#CFE0FC"/>
<path fill-rule="evenodd" clip-rule="evenodd" d="M218.75 116.861C208.164 113.373 188.825 150.57 186.677 164.919C184.529 179.267 201.65 180.968 208.223 176.553C218.477 169.67 229.335 120.35 218.75 116.861Z" fill="#2A3460"/>
<path fill-rule="evenodd" clip-rule="evenodd" d="M242.095 152.854L248.973 146.788C248.973 146.788 261.074 143.314 267.659 143.114C274.245 142.917 286.786 149.125 286.786 149.125C286.786 149.125 275.262 160.851 270.712 160.007C266.162 159.163 257.979 156.281 257.979 156.281L247.423 162.144C247.42 162.147 242.58 159.563 242.095 152.854Z" fill="#E69888"/>
<path fill-rule="evenodd" clip-rule="evenodd" d="M248.973 146.788L254.739 161.151C220.85 179.841 174.976 186.426 197.141 158.753C205.022 148.916 234.376 150.106 248.973 146.788Z" fill="#2A3460"/>
<path fill-rule="evenodd" clip-rule="evenodd" d="M281.168 149.818L286.786 149.125C286.786 149.125 293.782 160.896 291.241 162.885C288.7 164.873 286.641 163.68 286.158 162.041C285.673 160.401 281.591 152.611 281.591 152.611L281.168 149.818Z" fill="#E69888"/>
<path fill-rule="evenodd" clip-rule="evenodd" d="M274.194 151.806L282.934 152.759L283.224 167.357C283.224 167.357 282.86 168.699 280.392 168.599C277.922 168.498 277.366 166.24 277.413 164.202C277.461 162.165 277.703 154.86 277.703 154.86L274.194 151.806Z" fill="#E69888"/>
<path fill-rule="evenodd" clip-rule="evenodd" d="M272.765 155.607L277.703 154.86C277.703 154.86 277.366 165.147 276.058 165.693C274.751 166.24 271.458 165.593 271.023 163.456C270.588 161.318 270.345 157.79 270.345 157.79L272.765 155.607Z" fill="#E69888"/>
<path fill-rule="evenodd" clip-rule="evenodd" d="M402.255 126.747H461.839C469.483 126.747 475.741 133.165 475.741 141.013V182.431C475.741 190.279 469.486 196.697 461.839 196.697H402.255C394.61 196.697 388.353 190.279 388.353 182.431V141.013C388.353 133.168 394.607 126.747 402.255 126.747Z" fill="#DC5F44"/>
<path fill-rule="evenodd" clip-rule="evenodd" d="M388.353 153.594H397.74C398.844 153.594 399.876 153.88 400.779 154.414C401.675 154.945 402.429 155.72 402.983 156.703L414.009 176.307C414.408 177.018 414.976 177.558 415.639 177.895C416.302 178.229 417.065 178.363 417.861 178.253C418.657 178.147 419.361 177.816 419.914 177.315C420.467 176.817 420.876 176.143 421.083 175.348L427.917 149.174C428.275 147.802 429.044 146.648 430.073 145.84C431.1 145.033 432.381 144.568 433.766 144.568C435.15 144.568 436.431 145.033 437.458 145.84C438.487 146.651 439.257 147.802 439.615 149.174L443.721 164.901C443.952 165.784 444.44 166.519 445.088 167.029C445.739 167.542 446.558 167.837 447.449 167.837H475.737V170.089H447.449C446.064 170.089 444.783 169.625 443.756 168.817C442.727 168.007 441.958 166.856 441.6 165.484L437.493 149.757C437.263 148.876 436.774 148.139 436.126 147.629C435.476 147.115 434.656 146.821 433.766 146.821C432.875 146.821 432.056 147.115 431.405 147.629C430.757 148.139 430.269 148.876 430.038 149.757L423.204 175.931C422.881 177.163 422.236 178.217 421.358 179.006C420.482 179.793 419.382 180.312 418.145 180.479C416.911 180.646 415.716 180.436 414.672 179.908C413.63 179.38 412.743 178.536 412.118 177.427L401.089 157.83C400.731 157.192 400.249 156.697 399.684 156.36C399.122 156.026 398.462 155.85 397.746 155.85H388.359V153.594H388.353Z" fill="white"/>
<path fill-rule="evenodd" clip-rule="evenodd" d="M450.286 141.517H458.064C458.913 141.517 459.605 142.227 459.605 143.099C459.605 143.97 458.913 144.681 458.064 144.681H450.286C449.437 144.681 448.744 143.97 448.744 143.099C448.744 142.227 449.437 141.517 450.286 141.517Z" fill="white"/>
<path fill-rule="evenodd" clip-rule="evenodd" d="M450.286 145.871H453.653C454.502 145.871 455.194 146.581 455.194 147.452C455.194 148.324 454.502 149.034 453.653 149.034H450.286C449.437 149.034 448.744 148.324 448.744 147.452C448.744 146.581 449.437 145.871 450.286 145.871Z" fill="white"/>
<path fill-rule="evenodd" clip-rule="evenodd" d="M220.726 52.5208C221.661 50.1709 219.569 43.0028 215.114 31.3959C215.114 31.3959 212.318 26.9602 214.8 25.3238C217.282 23.6874 220.066 27.5158 220.066 27.5158C220.066 27.5158 222.43 8.7894 228.655 6.3059C234.879 3.8224 227.809 15.7207 227.809 15.7207C235.853 8.68921 245.698 -6.73702 273.706 3.3002C293.336 10.3348 294.528 21.5014 289.578 30.3454C288.599 45.1584 278.283 48.2734 278.283 48.2734L275.934 45.5136C281.694 43.2244 284.969 38.7402 286.83 34.3318C282.239 39.8756 275.597 43.7922 271.079 43.8832C252.139 44.2597 233.092 42.6202 220.726 52.5208Z" fill="#2A3460"/>
<path fill-rule="evenodd" clip-rule="evenodd" d="M220.726 52.5208C221.661 50.1709 219.569 43.0028 215.114 31.3959C215.114 31.3959 212.318 26.9602 214.8 25.3238C217.282 23.6874 220.066 27.5158 220.066 27.5158C220.066 27.5158 221.199 18.5503 223.96 12.2019C225.119 13.9143 226.883 14.6308 229.554 12.4296C228.687 14.2361 227.809 15.7177 227.809 15.7177C229.504 14.2361 231.279 12.3811 233.285 10.4714C230.072 16.1124 226.637 25.427 241.225 22.5428C241.225 22.5428 253.902 33.4938 283.641 28.9428C283.641 28.9428 280.733 34.9724 285.661 35.6525C281.162 40.4859 275.224 43.7922 271.076 43.8772C252.139 44.2597 233.092 42.6202 220.726 52.5208ZM288.774 35.5067C288.431 37.3436 286.247 37.5014 286.2 35.7041C284.259 39.6449 281.094 43.4582 275.934 45.5075L278.283 48.2673C278.283 48.2673 286.108 45.9053 288.774 35.5067Z" fill="#191A31"/>
<path fill-rule="evenodd" clip-rule="evenodd" d="M279.836 32.2005C279.836 32.2005 291.144 78.8982 261.455 85.2162C240.521 89.6731 230.338 78.2181 226.516 63.985C215.608 66.5262 210.401 48.8897 215.262 44.8214C220.122 40.75 222.924 43.2487 224.809 44.7121C226.64 24.9747 256.949 12.7909 279.836 32.2005Z" fill="#E69888"/>
<path fill-rule="evenodd" clip-rule="evenodd" d="M228.084 35.3428C236.82 21.7261 260.875 16.1215 279.836 32.2005C271.733 37.635 239.796 31.2198 239.796 31.2198C237.45 42.9208 227.953 54.0055 227.953 54.0055C229.288 50.6233 228.862 42.6081 228.084 35.3428Z" fill="#CE5454"/>
<path fill-rule="evenodd" clip-rule="evenodd" d="M226.516 63.982C215.27 66.3349 209.623 48.325 217.767 48.5163C222.409 48.6256 223.223 52.9763 223.359 54.1846C219.167 52.3387 216.948 61.7201 225.243 60.87L226.516 63.982Z" fill="#CE5454"/>
<path fill-rule="evenodd" clip-rule="evenodd" d="M223.093 38.6157C223.199 39.235 224.809 44.7091 224.809 44.7091C224.809 44.7091 227.486 49.0112 227.953 54.0024C227.953 54.0024 237.329 42.7903 237.246 26.8115C237.246 26.8115 280.336 36.9398 283.23 30.3424C288.448 18.4471 247.189 15.7389 243.21 16.8167C237.713 18.3044 228.74 24.9989 228.3 26.0373C227.862 27.0756 223.093 38.6157 223.093 38.6157Z" fill="#2A3460"/>
<path fill-rule="evenodd" clip-rule="evenodd" d="M227.953 54.0024C227.953 54.0024 235.021 44.3417 233.202 28.4934C239.796 31.2168 252.663 31.232 252.663 31.232C244.897 29.8445 240.48 28.1868 238.11 27.0088C244.062 28.3629 279.147 36.0715 283.031 30.6824C283.259 29.7898 283.57 29.1007 283.632 28.9671L283.635 28.9458C253.902 33.4938 241.225 22.5458 241.225 22.5458C237.045 23.3716 234.344 23.1955 232.696 22.391C214.921 34.8176 225.992 42.5868 227.953 54.0024Z" fill="#191A31"/>
<path fill-rule="evenodd" clip-rule="evenodd" d="M270.458 69.9478C270.458 69.9478 263.573 74.174 253.287 69.0765C253.287 69.0765 260.52 79.642 270.458 69.9478Z" fill="#CE5454"/>
<path fill-rule="evenodd" clip-rule="evenodd" d="M254.574 68.1687C254.781 68.5513 254.234 71.1319 252.846 70.4974C250.473 69.4105 253.961 67.0423 254.574 68.1687Z" fill="#CE5454"/>
<path fill-rule="evenodd" clip-rule="evenodd" d="M257.364 74.6355C257.657 74.8541 260.722 76.609 264.597 75.1365C264.597 75.1365 260.118 80.398 257.364 74.6355Z" fill="#CE5454"/>
<path fill-rule="evenodd" clip-rule="evenodd" d="M268.594 59.8134C268.422 60.1656 266.692 64.3129 259.588 59.8134C259.908 66.6749 268.68 66.9027 268.594 59.8134Z" fill="#CE5454"/>
<path fill-rule="evenodd" clip-rule="evenodd" d="M256.222 53.0431C256.222 53.0431 255.662 48.237 251.305 47.7421C246.947 47.2502 244.145 52.9429 244.145 52.9429C244.145 52.9429 250.686 58.6598 256.222 53.0431Z" fill="white"/>
<path fill-rule="evenodd" clip-rule="evenodd" d="M256.222 53.0431C255.594 46.6673 247.737 46.306 244.148 52.9429C244.148 52.9429 245.039 44.87 251.018 45.0673C256.997 45.2677 256.222 53.0431 256.222 53.0431Z" fill="#191A31"/>
<path fill-rule="evenodd" clip-rule="evenodd" d="M252.438 47.2806C254.526 47.2806 256.222 49.081 256.222 51.3034C256.222 53.5258 254.526 55.3262 252.438 55.3262C250.349 55.3262 248.654 53.5258 248.654 51.3034C248.657 49.081 250.349 47.2806 252.438 47.2806Z" fill="#191A31"/>
<path fill-rule="evenodd" clip-rule="evenodd" d="M249.139 49.503C249.941 49.503 250.592 49.9524 250.592 50.508C250.592 51.0635 249.941 51.5129 249.139 51.5129C248.337 51.5129 247.686 51.0635 247.686 50.508C247.686 49.9554 248.337 49.503 249.139 49.503Z" fill="white"/>
<path fill-rule="evenodd" clip-rule="evenodd" d="M248.763 36.6696C251.204 36.457 253.284 37.5045 253.408 39.0073C253.532 40.5102 251.654 41.9038 249.213 42.1163C246.772 42.3288 244.693 41.2814 244.568 39.7785C244.444 38.2726 246.32 36.8821 248.763 36.6696Z" fill="#191A31"/>
<path fill-rule="evenodd" clip-rule="evenodd" d="M266.961 53.043C266.961 53.043 267.55 48.237 271.91 47.7421C276.271 47.2502 279.037 52.9429 279.037 52.9429C279.037 52.9429 272.73 58.5353 266.961 53.043Z" fill="white"/>
<path fill-rule="evenodd" clip-rule="evenodd" d="M266.964 53.0431C267.931 46.6916 275.49 46.306 279.04 52.9429C279.04 52.9429 278.2 44.87 272.221 45.0673C266.236 45.2677 266.964 53.0431 266.964 53.0431Z" fill="#191A31"/>
<path fill-rule="evenodd" clip-rule="evenodd" d="M273.955 47.2806C276.043 47.2806 277.727 49.081 277.712 51.3034C277.697 53.5258 275.993 55.3262 273.904 55.3262C271.816 55.3262 270.132 53.5258 270.147 51.3034C270.159 49.081 271.866 47.2806 273.955 47.2806Z" fill="#191A31"/>
<path fill-rule="evenodd" clip-rule="evenodd" d="M270.641 49.503C271.443 49.503 272.091 49.9524 272.088 50.508C272.085 51.0635 271.431 51.5129 270.629 51.5129C269.828 51.5129 269.18 51.0635 269.183 50.508C269.186 49.9554 269.837 49.503 270.641 49.503Z" fill="white"/>
<path fill-rule="evenodd" clip-rule="evenodd" d="M274.407 36.6696C271.967 36.457 269.887 37.5045 269.763 39.0073C269.638 40.5102 271.517 41.9038 273.958 42.1163C276.398 42.3288 278.478 41.2814 278.603 39.7785C278.727 38.2726 276.848 36.8821 274.407 36.6696Z" fill="#191A31"/>
<path fill-rule="evenodd" clip-rule="evenodd" d="M262.053 49.2631C262.653 48.9717 263.645 48.6802 264.642 49.2085C264.81 46.1846 266.076 43.4582 268.035 41.4483C270.144 39.2836 273.055 37.9447 276.274 37.9447C279.493 37.9447 282.404 39.2836 284.514 41.4483C286.623 43.613 287.925 46.6005 287.925 49.9037C287.925 53.207 286.62 56.1945 284.514 58.3592C282.404 60.5239 279.493 61.8598 276.274 61.8598C273.055 61.8598 270.144 60.5209 268.035 58.3592C265.964 56.2339 264.668 53.3133 264.624 50.0829C263.585 49.2753 262.458 49.8552 262.068 50.1041C262.017 53.3284 260.722 56.24 258.657 58.3592C256.547 60.5239 253.636 61.8598 250.417 61.8598C247.198 61.8598 244.287 60.5209 242.178 58.3592C240.068 56.1945 238.764 53.207 238.764 49.9037C238.764 46.6005 240.068 43.613 242.178 41.4483C244.287 39.2836 247.198 37.9447 250.417 37.9447C253.636 37.9447 256.547 39.2836 258.657 41.4483C260.627 43.4703 261.896 46.2149 262.053 49.2631ZM258.139 41.9796C256.163 39.9515 253.432 38.6976 250.417 38.6976C247.402 38.6976 244.672 39.9515 242.696 41.9796C240.719 44.0077 239.497 46.81 239.497 49.9037C239.497 52.9975 240.719 55.7998 242.696 57.8279C244.672 59.856 247.402 61.1099 250.417 61.1099C253.432 61.1099 256.163 59.856 258.139 57.8279C260.115 55.7998 261.337 52.9975 261.337 49.9037C261.337 46.807 260.115 44.0047 258.139 41.9796ZM283.993 41.9796C282.017 39.9515 279.286 38.6976 276.271 38.6976C273.257 38.6976 270.526 39.9515 268.55 41.9796C266.573 44.0077 265.352 46.81 265.352 49.9037C265.352 52.9975 266.573 55.7998 268.55 57.8279C270.526 59.856 273.257 61.1099 276.271 61.1099C279.286 61.1099 282.017 59.856 283.993 57.8279C285.969 55.7998 287.191 52.9975 287.191 49.9037C287.191 46.807 285.969 44.0047 283.993 41.9796Z" fill="white"/>
<path d="M406.802 500C458.274 500 500 457.18 500 404.358C500 351.536 458.274 308.716 406.802 308.716C355.33 308.716 313.604 351.536 313.604 404.358C313.604 457.18 355.33 500 406.802 500Z" fill="#F0C63B"/>
<path fill-rule="evenodd" clip-rule="evenodd" d="M388.72 310.519C349.618 318.41 319.287 351.394 314.323 392.457L333.695 393.893C330.476 397.745 334.834 411.426 339.281 416.347L336.967 416.575C336.967 416.575 339.6 499.144 401.447 477.712C399.743 484.37 397.959 492.091 396.338 499.396C399.773 499.791 403.264 500 406.802 500C440.437 500 469.909 481.711 486.296 454.298C478.297 446.468 465.788 439.336 465.788 439.336L467.338 432.976C468.72 428.337 463.019 424.451 458.839 422.292C458.88 419.626 459.025 416.788 459.333 413.879C459.839 413.357 460.327 412.816 460.797 412.252C465.344 419.508 472.513 426.7 483.965 419.417C484.678 418.986 485.397 418.488 486.125 417.911C486.444 417.668 486.743 417.413 487.03 417.155L487.113 417C495.432 408.287 483.725 387.271 476.448 376.092C479.989 366.013 475.087 356.494 475.087 356.494C474.122 353.249 471.892 350.246 468.951 347.584C469.01 345.738 468.599 343.597 466.756 342.289C464.398 340.613 462.04 341.147 460.599 341.785C452.413 337.316 442.975 334.856 438.094 335.43C431.485 336.204 422.482 343.71 418.337 353.149C416.74 355.535 416.467 359.124 416.467 359.124C416.272 360.171 416.145 361.231 416.098 362.296C415.657 362.746 415.207 363.231 414.752 363.76C405.551 374.392 404.876 361.079 410.684 362.867C410.684 362.867 408.746 357.402 404.388 362.967C401.042 367.239 405.631 372.273 415.654 371.189L415.533 371.632L415.459 371.912L415.385 372.194L415.263 372.661L415.237 372.771L415.163 373.065L415.089 373.363L415.015 373.663L414.941 373.967L414.84 374.392L414.722 374.896C411.494 388.844 409.648 411.487 428.887 418.673C430.115 419.131 431.31 419.523 432.476 419.857C432.565 421.302 432.644 422.832 432.701 424.408C422.704 427.982 421.976 434.372 421.976 434.372C422.053 436.753 422.142 440.402 422.21 443.326C422.056 443.49 419.618 446.064 416.627 449.343C399.184 455.652 361.712 475.708 365.416 413.797L362.549 414.076C363.298 411.308 363.952 404.932 370.496 398.234C371.005 397.712 371.442 397.211 371.818 396.725L379.049 397.263C384.448 397.663 389.184 393.459 389.575 387.918L394.332 320.381C394.628 316.115 392.276 312.259 388.72 310.519Z" fill="#D69724"/>
<path fill-rule="evenodd" clip-rule="evenodd" d="M326.675 377.073C326.675 377.073 329.331 356.425 328.053 353.182C326.772 349.943 305.758 350.638 299.563 352.924C293.365 355.21 301.208 377.173 306.631 377.965C312.051 378.764 326.675 377.073 326.675 377.073Z" fill="#E69888"/>
<path fill-rule="evenodd" clip-rule="evenodd" d="M381.327 409.2C363.884 415.509 326.411 435.566 330.116 373.654L301.67 376.438C301.67 376.438 304.427 463.349 371.052 435.724L381.327 409.2Z" fill="#2A3460"/>
<path fill-rule="evenodd" clip-rule="evenodd" d="M381.327 409.2C375.022 411.481 366.102 415.555 357.455 416.909C365.443 419.298 366.718 435.383 352.348 440.83C357.946 440.202 364.153 438.587 371.052 435.724L381.327 409.2Z" fill="#191A31"/>
<path fill-rule="evenodd" clip-rule="evenodd" d="M387.013 407.843C387.013 407.843 386.821 398.75 386.673 394.23C386.673 394.23 387.554 386.485 400.711 383.282C413.867 380.079 414.077 383.449 414.077 383.449L403.521 402.133L387.013 407.843Z" fill="#447889"/>
<path fill-rule="evenodd" clip-rule="evenodd" d="M419.453 380.318C419.453 380.318 434.171 385.683 432.041 392.839L430.491 399.2C430.491 399.2 451.407 411.125 456.442 421.062C460.454 428.98 462.744 465.671 463.51 480.253C447.801 492.635 428.139 500 406.799 500C387.939 500 370.392 494.247 355.724 484.364C357.792 474.139 367.768 425.568 371.806 420.267C376.324 414.341 386.912 403.174 386.912 403.174L401.243 393.037L419.453 380.318Z" fill="#447889"/>
<path fill-rule="evenodd" clip-rule="evenodd" d="M388.773 498.209C388.525 498.16 388.279 498.109 388.034 498.057C384.986 452.725 395.087 418.46 395.116 418.357L395.817 418.57C395.788 418.676 385.693 452.917 388.773 498.209Z" fill="white"/>
<path fill-rule="evenodd" clip-rule="evenodd" d="M419.358 381.709C419.358 381.709 442.984 390.453 423.426 397.211C403.864 403.969 396.311 408.144 396.311 408.144L394.956 414.504C394.956 414.504 390.211 404.07 388.371 395.523C388.371 395.523 387.596 380.218 419.358 381.709Z" fill="#191A31"/>
<path fill-rule="evenodd" clip-rule="evenodd" d="M473.906 470.717C469.711 451.593 461.217 421.263 449.233 419.368C436.088 417.289 440.626 466.968 443.753 492.182C455.167 487.115 465.401 479.774 473.906 470.717Z" fill="#2A3460"/>
<path fill-rule="evenodd" clip-rule="evenodd" d="M396.155 368.584C396.155 368.584 398.486 386.36 396.986 399.181C400.066 403.951 411.367 401.601 417.846 399.181C419.586 398.553 421.441 397.894 423.423 397.211C423.731 397.105 424.029 396.998 424.316 396.889C423.574 390.857 422.142 374.003 426.967 359.694C432.967 341.918 395.323 345.68 396.155 368.584Z" fill="#E69888"/>
<path fill-rule="evenodd" clip-rule="evenodd" d="M396.155 368.584C396.155 368.584 397.746 377.422 397.468 386.928C408.006 390.143 421.657 374.62 421.657 374.62L418.476 358.325L413.882 348.816C405.216 350.271 395.732 356.959 396.155 368.584Z" fill="#CE5454"/>
<path fill-rule="evenodd" clip-rule="evenodd" d="M253.399 268.084L345.92 274.949C351.319 275.35 355.416 280.21 355.026 285.751L350.269 353.288C349.878 358.829 345.142 363.034 339.742 362.633L247.222 355.769C241.823 355.368 237.725 350.507 238.116 344.966L242.873 277.429C243.264 271.889 248 267.684 253.399 268.084Z" fill="#2A3460"/>
<path fill-rule="evenodd" clip-rule="evenodd" d="M320.841 367.342L325.548 374.101L327.249 373.934C327.997 371.165 328.651 364.789 335.195 358.091C341.736 351.397 336.68 347.669 332.323 349.159C328.349 350.353 320.959 359.485 320.841 367.342Z" fill="#E69888"/>
<path fill-rule="evenodd" clip-rule="evenodd" d="M267.319 299.784L280.78 300.925L280.419 305.416L266.958 304.274L267.319 299.784ZM268.135 292.479L295.824 294.747L295.481 299.237L267.792 296.969L268.135 292.479Z" fill="white"/>
<path d="M304.879 328.584L304.517 333.074L317.977 334.216L318.338 329.726L304.879 328.584Z" fill="white"/>
<path fill-rule="evenodd" clip-rule="evenodd" d="M436.109 328.681C436.109 328.681 464.868 366.644 450.827 377.774C436.786 388.904 425.42 372.215 421.387 364.655C417.355 357.096 419.065 330.867 436.109 328.681Z" fill="#447889"/>
<path fill-rule="evenodd" clip-rule="evenodd" d="M451.73 377.015C451.443 377.273 451.144 377.528 450.824 377.771C433.588 390.89 425.417 372.212 421.384 364.652C417.97 358.249 418.674 338.457 429.322 331.219C432.565 334.72 436.058 339.492 439.872 346.029C439.872 346.029 447.419 354.202 451.091 363.046C448.807 353.522 441.919 344.915 441.896 344.885L442.295 344.551C442.322 344.584 450.818 355.198 452.156 366.006C453.333 369.923 453.514 373.803 451.73 377.015Z" fill="#2A3460"/>
<path fill-rule="evenodd" clip-rule="evenodd" d="M382.844 323.35C382.844 323.35 365.099 367.886 393.587 378.53C413.678 386.035 425.364 376.205 431.144 362.688C441.582 366.817 449.209 350.134 444.972 345.389C440.733 340.643 437.612 342.699 435.541 343.867C436.499 324.066 408.216 307.526 382.844 323.35Z" fill="#E69888"/>
<path fill-rule="evenodd" clip-rule="evenodd" d="M382.844 323.35C382.844 323.35 380.975 328.047 379.421 334.753C384.504 333.25 391.347 330.172 400.569 324.516C400.569 324.516 398.533 325.305 399.018 330.472C399.018 330.472 417.101 323.161 427.967 332.264C429.458 333.511 431.283 333.839 433.313 333.481C426.213 319.087 403.56 310.431 382.844 323.35Z" fill="#CE5454"/>
<path fill-rule="evenodd" clip-rule="evenodd" d="M431.144 362.688C436.511 364.81 441.401 361.874 444.17 357.648C446.318 353.549 445.499 349.12 441.972 348.677C437.363 348.1 435.949 352.283 435.641 353.458C440.049 352.25 440.928 361.862 432.84 359.795L431.144 362.688Z" fill="#CE5454"/>
<path fill-rule="evenodd" clip-rule="evenodd" d="M423.905 302.446C423.905 302.446 427.68 299.465 431.458 302.149C435.236 304.833 433.008 310.993 433.008 310.993C433.008 310.993 422.742 308.904 423.905 302.446Z" fill="#191A31"/>
<path fill-rule="evenodd" clip-rule="evenodd" d="M394.853 318.744C394.853 318.744 394.658 318.562 394.288 318.325C392.563 317.217 387.025 314.867 379.457 323.614C370.256 334.246 369.579 320.933 375.389 322.721C375.389 322.721 373.451 317.256 369.093 322.821C364.736 328.387 373.839 335.245 390.883 328.189C407.926 321.133 410.622 322.484 410.622 322.484C410.622 322.484 403.178 322.824 399.888 328.192C399.888 328.192 412.79 324.971 424.932 329.959C424.932 329.959 430.931 334.692 429.227 344.787C427.523 354.882 427.526 354.897 427.526 354.897C427.526 354.897 430.508 345.431 435.97 343.719C435.97 343.719 440.073 332.127 423.032 324.616C405.992 317.098 394.853 318.744 394.853 318.744Z" fill="#191A31"/>
<path fill-rule="evenodd" clip-rule="evenodd" d="M402.796 295.287C411.728 294.24 435.913 303.336 439.789 316.355C439.789 316.355 445.114 326.692 440.659 337.225L438.289 342.589C437.402 342.826 436.618 343.254 435.934 343.643C425.952 322.372 401.838 316.385 380.803 322.15C381.404 308.837 394.152 296.301 402.796 295.287Z" fill="#447889"/>
<path fill-rule="evenodd" clip-rule="evenodd" d="M402.796 295.287C408.379 294.632 419.92 297.941 428.736 303.691C433.659 312.59 430.458 322.727 430.458 322.727C429.988 323.693 429.455 324.728 428.852 325.851C416.077 314.551 398.116 309.599 382.161 315.253C385.764 304.784 395.672 296.122 402.796 295.287Z" fill="#5B95A5"/>
<path fill-rule="evenodd" clip-rule="evenodd" d="M416.009 326.204L416.438 326.368L423.583 329.085C423.583 329.085 423.068 320.472 410.243 321.895C410.243 321.895 408.891 312.341 394.317 319.196C394.317 319.196 388.347 313.13 380.8 322.15L381.969 324.91C381.972 324.91 409.571 315.918 416.009 326.204Z" fill="#191A31"/>
<path fill-rule="evenodd" clip-rule="evenodd" d="M387.88 310.446C387.88 310.446 398.823 308.361 408.311 310.744C412.506 299.001 400.716 296.766 395.723 299.614C393.107 301.105 387.88 306.072 387.88 310.446Z" fill="#191A31"/>
<path fill-rule="evenodd" clip-rule="evenodd" d="M383.04 313.006C383.04 313.006 398.699 308.901 410.613 313.571C413.299 315.064 412.16 319.19 409.521 318.647C406.882 318.103 393.903 314.409 381.17 318.981C381.17 318.978 381.442 315.389 383.04 313.006Z" fill="white"/>
<path fill-rule="evenodd" clip-rule="evenodd" d="M405.27 312.966C405.722 312.966 406.101 313.155 406.349 313.458C406.598 313.762 406.713 314.184 406.642 314.648C406.568 315.113 406.32 315.535 405.977 315.839C405.631 316.142 405.193 316.33 404.74 316.33C404.287 316.33 403.909 316.142 403.66 315.839C403.412 315.535 403.293 315.113 403.367 314.648C403.441 314.184 403.69 313.765 404.033 313.461C404.376 313.155 404.817 312.966 405.27 312.966ZM385.501 313.662C385.954 313.662 386.335 313.85 386.581 314.154C386.826 314.457 386.948 314.879 386.874 315.344C386.8 315.808 386.551 316.23 386.205 316.534C385.859 316.837 385.421 317.026 384.969 317.026C384.516 317.026 384.137 316.837 383.889 316.534C383.64 316.23 383.522 315.808 383.596 315.344C383.67 314.879 383.918 314.46 384.261 314.157C384.608 313.85 385.048 313.662 385.501 313.662ZM386.158 314.53C385.989 314.324 385.729 314.193 385.418 314.193C385.108 314.193 384.806 314.324 384.572 314.53C384.335 314.736 384.167 315.025 384.116 315.344C384.066 315.662 384.146 315.951 384.315 316.157C384.483 316.364 384.747 316.494 385.054 316.494C385.365 316.494 385.667 316.367 385.9 316.157C386.134 315.948 386.306 315.659 386.356 315.344C386.409 315.025 386.326 314.736 386.158 314.53ZM391.539 312.52C391.992 312.52 392.371 312.708 392.619 313.012C392.868 313.316 392.983 313.738 392.912 314.202C392.838 314.667 392.59 315.089 392.246 315.392C391.9 315.696 391.462 315.884 391.01 315.884C390.557 315.884 390.178 315.696 389.93 315.392C389.681 315.089 389.563 314.667 389.637 314.202C389.711 313.738 389.959 313.319 390.303 313.015C390.649 312.708 391.087 312.52 391.539 312.52ZM392.196 313.385C392.027 313.179 391.767 313.048 391.456 313.048C391.146 313.048 390.847 313.179 390.61 313.385C390.374 313.592 390.205 313.88 390.155 314.199C390.104 314.518 390.184 314.806 390.353 315.013C390.525 315.219 390.785 315.35 391.093 315.35C391.403 315.35 391.705 315.222 391.939 315.013C392.172 314.803 392.344 314.515 392.394 314.199C392.448 313.883 392.368 313.595 392.196 313.385ZM397.986 312.171C398.438 312.171 398.82 312.359 399.066 312.663C399.314 312.966 399.433 313.388 399.359 313.853C399.285 314.317 399.036 314.739 398.693 315.043C398.347 315.347 397.909 315.535 397.456 315.535C397.004 315.535 396.625 315.347 396.376 315.043C396.128 314.739 396.01 314.317 396.084 313.853C396.158 313.388 396.406 312.969 396.749 312.666C397.095 312.359 397.533 312.171 397.986 312.171ZM398.643 313.039C398.474 312.833 398.214 312.702 397.903 312.702C397.592 312.702 397.291 312.833 397.057 313.039C396.82 313.246 396.652 313.534 396.601 313.853C396.551 314.172 396.631 314.46 396.799 314.667C396.971 314.873 397.231 315.004 397.539 315.004C397.85 315.004 398.152 314.876 398.385 314.667C398.619 314.457 398.791 314.169 398.841 313.853C398.894 313.534 398.814 313.246 398.643 313.039ZM405.926 313.835C405.758 313.628 405.497 313.498 405.187 313.498C404.876 313.498 404.577 313.628 404.341 313.835C404.104 314.041 403.935 314.33 403.885 314.648C403.835 314.967 403.915 315.256 404.083 315.462C404.255 315.669 404.515 315.799 404.823 315.799C405.134 315.799 405.435 315.672 405.669 315.462C405.903 315.253 406.074 314.964 406.125 314.648C406.175 314.33 406.095 314.041 405.926 313.835Z" fill="#447889"/>
<path fill-rule="evenodd" clip-rule="evenodd" d="M431.381 305.558C432.902 309.311 435.011 316.944 431.467 324.953C430.852 326.343 430.488 327.06 432.047 329.033C432.396 329.477 432.766 329.899 433.112 330.339C435.553 333.457 437.529 336.857 439.206 340.522L438.81 341.42C437.1 337.586 435.073 334.04 432.544 330.806C428.337 325.426 422.728 320.894 414.864 317.284L415.163 316.601C419.417 318.556 423.1 320.675 426.109 323.253C429.541 326.195 431.047 324.938 431.996 321.212C433.881 313.835 431.42 307.277 430.212 304.69C430.606 304.976 430.996 305.264 431.381 305.558Z" fill="#2A3460"/>
<path fill-rule="evenodd" clip-rule="evenodd" d="M390.903 353.395C390.903 353.395 393.566 357.32 398.758 353.285C397.326 360.22 390.383 358.82 390.903 353.395Z" fill="#CE5454"/>
<path fill-rule="evenodd" clip-rule="evenodd" d="M389.332 362.454C389.332 362.454 406.935 356.774 409.548 363.347C412.16 369.917 403.222 376.599 394.868 373.8C386.507 371.001 387.258 363.356 389.332 362.454Z" fill="#CE5454"/>
<path fill-rule="evenodd" clip-rule="evenodd" d="M390.575 362.642C390.575 362.642 401.66 359.643 405.113 361.301C408.565 362.958 403.441 366.255 399.172 366.34C394.903 366.425 390.223 365.93 390.575 362.642Z" fill="white"/>
<path fill-rule="evenodd" clip-rule="evenodd" d="M402.122 339.617C402.122 339.617 408.003 338.491 412.828 341.499C412.828 341.499 410.512 335.148 403.494 335.464C403.491 335.464 401.512 337.042 402.122 339.617Z" fill="#191A31"/>
<path fill-rule="evenodd" clip-rule="evenodd" d="M400.882 347.993C401.782 342.061 410.237 342.559 409.337 348.613C408.166 346.114 403.817 345.103 400.882 347.993Z" fill="#191A31"/>
<path fill-rule="evenodd" clip-rule="evenodd" d="M393.273 339.213C393.273 339.213 387.513 337.559 382.448 340.112C382.448 340.112 385.306 333.994 392.267 334.951C392.267 334.951 394.101 336.705 393.273 339.213Z" fill="#191A31"/>
<path fill-rule="evenodd" clip-rule="evenodd" d="M390.69 347.89C391.223 341.982 382.693 341.557 382.131 347.584C383.901 345.261 388.465 344.742 390.69 347.89Z" fill="#191A31"/>
<path d="M93.1979 471.798C144.67 471.798 186.396 428.978 186.396 376.156C186.396 323.334 144.67 280.514 93.1979 280.514C41.7261 280.514 0 323.334 0 376.156C0 428.978 41.7261 471.798 93.1979 471.798Z" fill="#DC5F44"/>
<path fill-rule="evenodd" clip-rule="evenodd" d="M183.544 352.59C185.405 360.129 186.399 368.022 186.399 376.156C186.399 388.886 183.97 401.034 179.571 412.139C173.201 417.428 165.562 421.339 156.512 422.465C157.302 423.555 158.11 424.684 158.938 425.856C161.817 429.925 163.701 433.823 164.763 437.424C147.666 458.43 121.957 471.798 93.2008 471.798C84.0295 471.798 75.1719 470.432 66.7994 467.9L70.7105 455.573C77.6422 435.183 87.9584 409.711 96.4226 409.034C98.8929 404.2 103.487 400.964 106.345 399.318C105.561 390.098 106.993 391.021 109.644 390.866C109.975 386.424 110.162 380.337 109.57 373.821C86.3993 375.327 77.8108 351.439 80.435 330.6C70.8199 328.253 65.3024 318.337 67.542 308.925C70.7726 295.342 87.3933 290.651 96.9492 300.673C103.345 296.869 111.472 296.065 121.179 300.078C144.042 290.749 159.48 314.406 154.394 331.805L153.66 333.933C157.71 347.486 159.722 366.638 143.075 375.127C140.738 376.32 138.498 377.237 136.35 377.914C136.113 381.521 135.945 385.695 136.004 389.84C136.948 389.87 137.554 389.937 137.696 390.046C138.48 390.665 137.912 396.109 137.539 399.075C138.818 400.393 141.246 402.998 144.684 407.133C164.355 395.799 179.189 377.525 183.544 352.59Z" fill="#B6253F"/>
<path d="M70.5525 304.771C77.3633 297.782 77.3633 286.45 70.5525 279.461C63.7418 272.471 52.6993 272.471 45.8886 279.461C39.0778 286.45 39.0778 297.782 45.8886 304.771C52.6993 311.761 63.7418 311.761 70.5525 304.771Z" fill="#2A3460"/>
<path fill-rule="evenodd" clip-rule="evenodd" d="M63.9977 309.01C62.1901 309.66 60.2464 310.015 58.2228 310.015C48.59 310.015 40.7826 302.003 40.7826 292.118C40.7826 290.497 40.9926 288.924 41.3891 287.43C42.4926 291.933 46.383 296.951 59.1429 292.686C59.1399 292.686 59.4387 301.42 63.9977 309.01Z" fill="#191A31"/>
<path fill-rule="evenodd" clip-rule="evenodd" d="M126.067 315.59C136.155 298.241 119.999 268.773 94.9197 279.008C43.0399 257.546 36.3774 373.788 96.6593 349.463C127.232 337.127 124.732 320.204 126.067 315.59Z" fill="#2A3460"/>
<path fill-rule="evenodd" clip-rule="evenodd" d="M59.1399 292.695C45.9185 318.893 56.2377 365.773 96.6563 349.463C98.5083 348.716 100.236 347.951 101.854 347.174C100.846 331.386 99.316 316.938 99.316 316.938C60.6014 330.806 59.1547 293.044 59.1399 292.695Z" fill="#191A31"/>
<path fill-rule="evenodd" clip-rule="evenodd" d="M176.438 352.836C176.438 352.836 176.565 352.629 176.769 352.286C177.514 351.032 179.287 347.969 179.665 346.563C179.665 346.563 178.307 341.894 171.964 338.366C165.621 334.838 156.713 350.638 163.684 354.117C170.657 357.596 176.438 352.836 176.438 352.836Z" fill="#191A31"/>
<path fill-rule="evenodd" clip-rule="evenodd" d="M153.711 347.757C153.711 347.757 157.876 336.077 159.426 323.259L174.086 332.063C174.086 332.063 172.654 343.515 168.37 352.636C164.089 361.756 153.634 353.631 153.711 347.757Z" fill="#E69888"/>
<path fill-rule="evenodd" clip-rule="evenodd" d="M106.653 391.549C106.653 391.549 149.936 377.768 157.488 330.266C161.621 349.08 173.79 357.858 179.665 346.563C179.665 346.563 164.947 406.586 119.238 401.419C119.238 401.419 107.23 400.226 106.653 391.549Z" fill="white"/>
<path fill-rule="evenodd" clip-rule="evenodd" d="M106.653 391.549C106.653 391.549 118.058 387.915 130.182 377.953C129.759 386.533 132.907 396.221 150.412 393.373C142.164 399.279 131.889 402.846 119.238 401.416C119.238 401.419 107.23 400.226 106.653 391.549Z" fill="#CFE0FC"/>
<path fill-rule="evenodd" clip-rule="evenodd" d="M161.796 326.935L159.426 323.259L157.923 312.229C157.923 312.229 183.1 316.005 182.908 316.701C182.715 317.396 181.692 327.989 174.086 332.066L161.796 326.935Z" fill="#E69888"/>
<path fill-rule="evenodd" clip-rule="evenodd" d="M92.6949 363.423L110.236 376.964C110.236 376.964 118.546 384.812 132.673 404.789C143.436 420.006 140.335 432.824 132.007 436.583L135.309 461.5C122.661 468.085 108.354 471.795 93.2008 471.795C81.0652 471.795 69.4709 469.412 58.8411 465.079C60.983 447.021 66.8822 398.265 69.0449 390.769C71.7105 381.539 82.5858 376.961 82.5858 376.961L92.6949 363.423Z" fill="#2A3460"/>
<path fill-rule="evenodd" clip-rule="evenodd" d="M102.316 471.346C99.316 471.643 96.2747 471.798 93.1979 471.798C81.0622 471.798 69.468 469.415 58.8382 465.082C59.8736 456.338 61.7907 440.405 63.7404 425.437C65.545 428.476 67.7254 431.452 70.3378 434.029L75.9056 409.179C74.4648 423.048 77.8552 445.387 96.3575 441.298C96.3575 441.295 84.4911 463.762 102.316 471.346Z" fill="#191A31"/>
<path fill-rule="evenodd" clip-rule="evenodd" d="M72.2933 455.892C72.2933 455.892 85.6123 391.121 71.3761 388.036C59.6458 385.495 43.6759 435.742 38.4128 453.527C47.6699 460.443 58.2139 465.653 69.607 468.704L72.2933 455.892Z" fill="white"/>
<path fill-rule="evenodd" clip-rule="evenodd" d="M72.2933 455.892C72.2933 455.892 73.1779 451.593 74.2459 445.166C59.8174 456.9 44.17 449.006 44.4481 434.503C41.8861 442.042 39.7826 448.888 38.4099 453.527C47.667 460.443 58.211 465.653 69.604 468.704L72.2933 455.892Z" fill="#CFE0FC"/>
<path fill-rule="evenodd" clip-rule="evenodd" d="M90.056 471.743C90.056 471.743 83.3432 459.362 77.7606 457.944C72.1779 456.527 64.2019 457.41 61.2286 459.927C58.2553 462.447 58.0512 464.782 58.0512 464.782C58.0512 464.782 72.0862 471.403 90.056 471.743Z" fill="#E69888"/>
<path fill-rule="evenodd" clip-rule="evenodd" d="M86.4526 468.37L90.056 471.743C90.056 471.743 91.3489 480.317 91.766 484.507C92.1831 488.697 85.71 489.277 84.9201 486.326C84.1302 483.378 81.29 469.567 81.29 469.567L86.4526 468.37Z" fill="#E69888"/>
<path fill-rule="evenodd" clip-rule="evenodd" d="M76.6245 468.455L81.5445 471.054C81.5445 471.054 83.2249 485.673 82.3906 488.833C81.5563 491.997 75.6719 492.121 75.1719 487.677C74.6719 483.232 74.456 468.71 74.456 468.71L76.6245 468.455Z" fill="#E69888"/>
<path fill-rule="evenodd" clip-rule="evenodd" d="M73.4618 465.295L73.6364 465.89L74.4618 468.713C74.4618 468.713 74.4648 482.758 73.3376 485.293C72.2104 487.831 67.8822 486.319 66.8822 484.352C65.8822 482.388 65.6633 477.682 65.6633 477.682C65.6633 477.682 60.0836 474.861 59.3351 472.126C58.5866 469.39 58.0541 464.779 58.0541 464.779L73.4618 465.295Z" fill="#E69888"/>
<path fill-rule="evenodd" clip-rule="evenodd" d="M111.067 346.363C111.067 346.363 108.736 364.139 110.236 376.961H82.5858C82.5858 376.961 86.2514 355.25 80.2546 337.474C74.2548 319.697 111.901 323.459 111.067 346.363Z" fill="#E69888"/>
<path fill-rule="evenodd" clip-rule="evenodd" d="M111.067 346.363C111.067 346.363 109.475 355.201 109.753 364.707C99.2154 367.922 85.565 352.399 85.565 352.399L88.7454 336.104L93.3399 326.595C102.005 328.053 111.49 334.741 111.067 346.363Z" fill="#CE5454"/>
<path fill-rule="evenodd" clip-rule="evenodd" d="M81.3699 369.917C81.3699 369.917 110.354 368.123 111.437 368.976C112.52 369.829 111.02 379.915 111.02 379.915L80.2043 379.487C80.2043 379.49 79.0357 369.659 81.3699 369.917Z" fill="#2A3460"/>
<path fill-rule="evenodd" clip-rule="evenodd" d="M152.554 259.195L195.434 255.551C201.203 255.063 206.315 259.504 206.794 265.428L210.345 309.432C210.821 315.353 206.493 320.599 200.721 321.091L157.841 324.734C152.072 325.223 146.959 320.781 146.48 314.858L142.93 270.853C142.454 264.933 146.782 259.687 152.554 259.195Z" fill="#F0C63B"/>
<path fill-rule="evenodd" clip-rule="evenodd" d="M159.63 326.89C159.63 326.437 159.243 320.201 157.752 313.455C156.261 306.709 163.828 305.659 165.237 312.532C166.645 319.406 165.598 325.63 165.598 325.63L159.63 326.89Z" fill="#E69888"/>
<path fill-rule="evenodd" clip-rule="evenodd" d="M176.509 299.687L180.198 299.322L166.651 275.183L163.172 275.526L154.403 301.876L158.024 301.517L160.136 294.938L173.21 293.645L176.509 299.687ZM161.095 291.93L165.24 279.035L171.71 290.882L161.095 291.93ZM188.334 279.045C185.345 279.339 182.65 280.481 180.866 282.257L182.517 284.716C183.84 283.31 186.014 282.296 188.227 282.075C191.567 281.744 193.378 283.277 193.653 286.197L193.718 286.884L188.375 287.412C182.822 287.961 181.127 290.676 181.414 293.742C181.724 297.06 184.612 299.104 188.831 298.688C191.748 298.399 193.727 297.185 194.688 295.342L194.925 297.865L198.123 297.549L197.04 286.009C196.549 280.778 193.428 278.541 188.334 279.045ZM189.141 295.964C186.576 296.22 184.916 295.181 184.739 293.268C184.588 291.644 185.411 290.217 188.748 289.886L193.949 289.37L194.2 292.039C193.564 294.325 191.674 295.712 189.141 295.964Z" fill="#2A3460"/>
<path fill-rule="evenodd" clip-rule="evenodd" d="M121.478 297.986C121.478 297.986 143.965 340.209 116.815 354.053C97.6681 363.817 84.9851 355.389 77.7664 342.62C67.8437 347.921 57.6399 334.009 62.1398 327.014C64.8024 322.879 68.4768 323.24 71.3584 324.51C68.249 304.945 94.538 285.177 121.478 297.986Z" fill="#E69888"/>
<path fill-rule="evenodd" clip-rule="evenodd" d="M77.7664 342.623C72.6631 345.349 67.4858 342.993 64.2729 339.11C61.6931 335.284 62.0215 330.788 65.4799 329.944C69.9975 328.842 71.8584 332.834 72.2903 333.97C67.7786 333.275 67.9532 342.926 75.7665 339.945L77.7664 342.623Z" fill="#CE5454"/>
<path fill-rule="evenodd" clip-rule="evenodd" d="M121.478 297.986C121.478 297.986 121.904 298.788 122.567 300.197C120.141 297.531 115.061 295.567 104.416 299.514C104.416 299.514 105.257 335.391 71.9708 327.433C71.8051 326.732 71.6513 326.031 71.5093 325.335C67.5094 305.51 94.1594 284.995 121.478 297.986Z" fill="#CE5454"/>
<path fill-rule="evenodd" clip-rule="evenodd" d="M124.774 305.316C119.07 289.568 102.325 298.33 102.325 298.33C102.325 298.33 100.982 325.936 72.0033 327.603C72.0033 327.603 69.5093 324.227 65.3468 322.858C65.3468 322.858 66.8467 294.653 92.9967 290.123C119.15 285.593 125.646 298.755 124.774 305.316Z" fill="#2A3460"/>
<path fill-rule="evenodd" clip-rule="evenodd" d="M89.8666 312.195C89.1566 317.068 82.4083 326.556 72.0033 327.603C72.0033 327.603 69.5093 324.227 65.3468 322.858C63.6131 322.181 62.6161 317.572 67.3053 313.373C71.8791 319.354 82.1923 319.014 89.8666 312.195Z" fill="#191A31"/>
<path fill-rule="evenodd" clip-rule="evenodd" d="M127.398 312.863C127.676 312.171 127.921 311.467 128.132 310.75C129.913 286.987 108.153 280.641 102.325 298.33C102.325 298.33 117.96 290.15 124.158 303.813C125.185 306.275 126.359 309.384 127.398 312.863Z" fill="#191A31"/>
<path fill-rule="evenodd" clip-rule="evenodd" d="M108.461 324.094C108.461 324.094 107.774 314.245 101.638 315.647C95.5025 317.047 98.4521 325.879 98.4521 325.879C98.4521 325.879 102.902 324.318 108.461 324.094Z" fill="white"/>
<path fill-rule="evenodd" clip-rule="evenodd" d="M108.431 323.799C105.538 311.946 96.5232 317.256 98.4492 325.879C92.7659 313.391 108.283 310.055 108.431 323.799Z" fill="#191A31"/>
<path fill-rule="evenodd" clip-rule="evenodd" d="M104.248 316.889C105.032 316.889 105.81 317.19 106.493 317.703C108.191 320.247 108.461 324.094 108.461 324.094C106.369 324.179 104.437 324.449 102.837 324.759C102.056 323.924 101.473 322.788 101.269 321.534C100.851 318.972 102.183 316.889 104.248 316.889Z" fill="#191A31"/>
<path fill-rule="evenodd" clip-rule="evenodd" d="M101.78 318.501C102.94 318.401 103.881 319.039 103.881 319.931C103.881 320.821 102.94 321.625 101.78 321.725C100.621 321.826 99.6799 321.188 99.6799 320.295C99.6799 319.406 100.621 318.604 101.78 318.501Z" fill="white"/>
<path fill-rule="evenodd" clip-rule="evenodd" d="M99.1119 306.208C97.3397 307.11 96.4108 308.892 97.035 310.191C97.6622 311.491 99.6059 311.813 101.378 310.911C103.15 310.009 104.079 308.227 103.455 306.928C102.831 305.628 100.884 305.306 99.1119 306.208Z" fill="#191A31"/>
<path fill-rule="evenodd" clip-rule="evenodd" d="M125.889 322.059C125.889 322.059 125.203 312.213 119.067 313.613C112.931 315.013 115.88 323.845 115.88 323.845C115.88 323.845 120.333 322.281 125.889 322.059Z" fill="white"/>
<path fill-rule="evenodd" clip-rule="evenodd" d="M125.862 321.765C122.969 309.912 113.955 315.222 115.88 323.842C110.197 311.357 125.714 308.018 125.862 321.765Z" fill="#191A31"/>
<path fill-rule="evenodd" clip-rule="evenodd" d="M121.679 314.855C122.463 314.855 123.241 315.155 123.925 315.669C125.623 318.213 125.892 322.059 125.892 322.059C123.8 322.144 121.868 322.418 120.268 322.724C119.487 321.889 118.904 320.754 118.7 319.503C118.28 316.935 119.614 314.855 121.679 314.855Z" fill="#191A31"/>
<path fill-rule="evenodd" clip-rule="evenodd" d="M119.212 316.467C120.371 316.367 121.312 317.007 121.312 317.897C121.312 318.787 120.371 319.591 119.212 319.691C118.052 319.791 117.111 319.154 117.111 318.261C117.111 317.372 118.049 316.567 119.212 316.467Z" fill="white"/>
<path fill-rule="evenodd" clip-rule="evenodd" d="M119.046 303.515C120.993 303.883 122.362 305.334 122.108 306.761C121.854 308.185 120.07 309.044 118.123 308.676C116.176 308.309 114.807 306.858 115.061 305.431C115.318 304.004 117.102 303.148 119.046 303.515Z" fill="#191A31"/>
<path fill-rule="evenodd" clip-rule="evenodd" d="M120.185 329.744C120.185 329.744 119.333 335.946 110.656 331.492C112.706 339.398 121.729 338.023 120.185 329.744Z" fill="#CE5454"/>
<path fill-rule="evenodd" clip-rule="evenodd" d="M117.588 343.096C117.588 343.096 110.765 346.891 105.159 342.717C105.952 341.724 104.384 340.652 103.505 341.448C102.493 342.362 103.304 343.925 104.615 343.163C105.976 345.886 111.179 350.462 117.588 343.096Z" fill="#CE5454"/>
<path fill-rule="evenodd" clip-rule="evenodd" d="M105.736 347.326C105.736 347.326 107.751 349.791 111.895 348.756C111.892 348.759 107.363 352.93 105.736 347.326Z" fill="#CE5454"/>
<path fill-rule="evenodd" clip-rule="evenodd" d="M68.3408 254.061C71.4412 254.061 73.956 256.641 73.956 259.823C73.956 263.005 71.4412 265.586 68.3408 265.586C65.2373 265.586 62.7256 263.005 62.7256 259.823C62.7256 256.641 65.2403 254.061 68.3408 254.061Z" fill="#DC5F44"/>
<path d="M294.833 437.114C299.432 437.114 303.161 433.288 303.161 428.568C303.161 423.847 299.432 420.021 294.833 420.021C290.233 420.021 286.505 423.847 286.505 428.568C286.505 433.288 290.233 437.114 294.833 437.114Z" fill="#F0C63B"/>
<path fill-rule="evenodd" clip-rule="evenodd" d="M307.8 449.358C310.045 449.358 311.868 451.229 311.868 453.533C311.868 455.837 310.045 457.708 307.8 457.708C305.554 457.708 303.732 455.84 303.732 453.533C303.732 451.226 305.554 449.358 307.8 449.358Z" fill="#F0C63B"/>
<path d="M371.139 132.944C374.998 131.631 377.088 127.356 375.809 123.396C374.529 119.437 370.363 117.291 366.505 118.604C362.646 119.918 360.555 124.192 361.835 128.152C363.115 132.112 367.28 134.258 371.139 132.944Z" fill="#447889"/>
<path fill-rule="evenodd" clip-rule="evenodd" d="M57.4979 231.105C59.2642 231.105 60.6931 232.575 60.6931 234.384C60.6931 236.197 59.2612 237.663 57.4979 237.663C55.7317 237.663 54.3028 236.193 54.3028 234.384C54.3028 232.575 55.7317 231.105 57.4979 231.105Z" fill="#CFE0FC"/>
<path d="M481.333 209.829C482.77 208.354 482.77 205.962 481.333 204.487C479.895 203.012 477.565 203.012 476.128 204.487C474.691 205.962 474.691 208.354 476.128 209.829C477.565 211.303 479.895 211.303 481.333 209.829Z" fill="#CFE0FC"/>
<path fill-rule="evenodd" clip-rule="evenodd" d="M188.999 415.43C191.407 415.43 193.363 417.434 193.363 419.909C193.363 422.38 191.41 424.387 188.999 424.387C186.588 424.387 184.635 422.383 184.635 419.909C184.635 417.437 186.591 415.43 188.999 415.43Z" fill="#CFE0FC"/>
</svg>
